<svg width="353" height="533" viewBox="0 0 353 533" fill="none" xmlns="http://www.w3.org/2000/svg">
<path fill-rule="evenodd" clip-rule="evenodd" d="M317.793 7.54371C376.773 12.9448 434.858 26.5828 482.366 61.95C529.485 97.0277 568.649 145.573 580.491 203.109C591.719 257.663 560.297 308.706 544.121 362.003C527.528 416.678 532.335 486.624 484.816 518.352C437.33 550.059 374.735 517.359 317.793 513.124C266.334 509.297 216.006 513.437 167.894 494.783C105.682 470.662 20.4419 455.175 2.54668 390.895C-15.4977 326.078 67.4884 277.858 89.837 214.397C111.289 153.483 81.935 73.0583 129.761 29.66C177.669 -13.8133 253.37 1.64414 317.793 7.54371Z" fill="#D25A30"/>
</svg>
