<svg width="334" height="490" viewBox="0 0 334 490" fill="none" xmlns="http://www.w3.org/2000/svg">
<path fill-rule="evenodd" clip-rule="evenodd" d="M125.26 6.94753C171.707 11.9218 217.448 24.482 254.86 57.054C291.966 89.3595 322.808 134.068 332.133 187.057C340.975 237.3 316.23 284.309 303.492 333.394C290.425 383.748 294.21 448.165 256.79 477.386C219.395 506.588 170.101 476.471 125.26 472.571C84.7361 469.047 45.1036 472.86 7.21578 455.68C-41.776 433.465 -108.902 419.202 -122.995 360.002C-137.204 300.308 -71.8533 255.899 -54.2539 197.453C-37.3608 141.353 -60.4767 67.2845 -22.8142 27.316C14.9133 -12.7216 74.5274 1.5142 125.26 6.94753Z" fill="#8B8CF9"/>
</svg>
