<svg xmlns="http://www.w3.org/2000/svg" version="1.1" xmlns:xlink="http://www.w3.org/1999/xlink" xmlns:svgjs="http://svgjs.com/svgjs" width="1440" height="560" preserveAspectRatio="none" viewBox="0 0 1440 560"><g mask="url(&quot;#SvgjsMask1013&quot;)" fill="none"><g mask="url(&quot;#SvgjsMask1014&quot;)"><path d="M1162.5 312.5L1137.5 287.5L1112.5 287.5L1087.5 287.5M1362.5 287.5L1337.5 262.5L1312.5 262.5L1287.5 262.5L1262.5 262.5M1212.5 312.5L1187.5 287.5L1162.5 287.5L1137.5 262.5L1112.5 262.5M1437.5 287.5L1412.5 262.5L1387.5 237.5L1362.5 237.5M1462.5 287.5L1437.5 287.5L1412.5 287.5L1387.5 287.5L1362.5 287.5L1337.5 287.5L1312.5 287.5L1287.5 287.5L1262.5 287.5L1237.5 287.5L1212.5 312.5L1187.5 312.5L1162.5 312.5L1137.5 312.5L1112.5 312.5L1087.5 312.5L1062.5 312.5" stroke="rgba(139, 140, 249, 1)" stroke-width="4.17"></path><path d="M1056.25 312.5 a6.25 6.25 0 1 0 12.5 0 a6.25 6.25 0 1 0 -12.5 0zM1081.25 287.5 a6.25 6.25 0 1 0 12.5 0 a6.25 6.25 0 1 0 -12.5 0zM1256.25 262.5 a6.25 6.25 0 1 0 12.5 0 a6.25 6.25 0 1 0 -12.5 0zM1106.25 262.5 a6.25 6.25 0 1 0 12.5 0 a6.25 6.25 0 1 0 -12.5 0zM1356.25 237.5 a6.25 6.25 0 1 0 12.5 0 a6.25 6.25 0 1 0 -12.5 0z" fill="rgba(139, 140, 249, 1)"></path><path d="M1237.5 187.5L1212.5 212.5L1187.5 212.5L1162.5 212.5L1137.5 212.5M1187.5 187.5L1162.5 162.5L1137.5 162.5L1112.5 162.5L1087.5 162.5M1262.5 187.5L1237.5 212.5L1212.5 237.5M1312.5 212.5L1287.5 237.5L1262.5 237.5M1462.5 262.5L1437.5 237.5L1412.5 237.5L1387.5 212.5L1362.5 212.5L1337.5 212.5L1312.5 212.5L1287.5 212.5L1262.5 187.5L1237.5 187.5L1212.5 187.5L1187.5 187.5L1162.5 187.5L1137.5 187.5L1112.5 187.5L1087.5 212.5" stroke="rgba(139, 140, 249, 1)" stroke-width="4.17"></path><path d="M1081.25 212.5 a6.25 6.25 0 1 0 12.5 0 a6.25 6.25 0 1 0 -12.5 0zM1131.25 212.5 a6.25 6.25 0 1 0 12.5 0 a6.25 6.25 0 1 0 -12.5 0zM1081.25 162.5 a6.25 6.25 0 1 0 12.5 0 a6.25 6.25 0 1 0 -12.5 0zM1206.25 237.5 a6.25 6.25 0 1 0 12.5 0 a6.25 6.25 0 1 0 -12.5 0zM1256.25 237.5 a6.25 6.25 0 1 0 12.5 0 a6.25 6.25 0 1 0 -12.5 0z" fill="rgba(139, 140, 249, 1)"></path><path d="M1062.5 337.5L1037.5 362.5M1087.5 337.5L1062.5 362.5M1462.5 312.5L1437.5 312.5L1412.5 312.5L1387.5 312.5L1362.5 312.5L1337.5 312.5L1312.5 312.5L1287.5 312.5L1262.5 312.5L1237.5 312.5L1212.5 337.5L1187.5 337.5L1162.5 337.5L1137.5 337.5L1112.5 337.5L1087.5 337.5L1062.5 337.5L1037.5 337.5" stroke="rgba(139, 140, 249, 1)" stroke-width="4.17"></path><path d="M1031.25 337.5 a6.25 6.25 0 1 0 12.5 0 a6.25 6.25 0 1 0 -12.5 0zM1031.25 362.5 a6.25 6.25 0 1 0 12.5 0 a6.25 6.25 0 1 0 -12.5 0zM1056.25 362.5 a6.25 6.25 0 1 0 12.5 0 a6.25 6.25 0 1 0 -12.5 0z" fill="rgba(139, 140, 249, 1)"></path><path d="M1462.5 337.5L1437.5 337.5L1412.5 337.5L1387.5 337.5L1362.5 337.5L1337.5 337.5L1312.5 337.5L1287.5 337.5L1262.5 337.5L1237.5 337.5" stroke="rgba(210, 90, 48, 1)" stroke-width="4.17"></path><path d="M1231.25 337.5 a6.25 6.25 0 1 0 12.5 0 a6.25 6.25 0 1 0 -12.5 0z" fill="rgba(210, 90, 48, 1)"></path><path d="M1437.5 212.5L1412.5 212.5M1387.5 187.5L1362.5 162.5L1337.5 162.5L1312.5 162.5L1287.5 162.5M1462.5 212.5L1437.5 212.5L1412.5 187.5L1387.5 187.5L1362.5 187.5L1337.5 187.5L1312.5 187.5L1287.5 187.5L1262.5 162.5L1237.5 162.5L1212.5 162.5L1187.5 137.5L1162.5 137.5L1137.5 137.5L1112.5 137.5L1087.5 137.5L1062.5 137.5L1037.5 137.5" stroke="rgba(210, 90, 48, 1)" stroke-width="4.17"></path><path d="M1031.25 137.5 a6.25 6.25 0 1 0 12.5 0 a6.25 6.25 0 1 0 -12.5 0zM1406.25 212.5 a6.25 6.25 0 1 0 12.5 0 a6.25 6.25 0 1 0 -12.5 0zM1281.25 162.5 a6.25 6.25 0 1 0 12.5 0 a6.25 6.25 0 1 0 -12.5 0z" fill="rgba(210, 90, 48, 1)"></path><path d="M1237.5 362.5L1212.5 387.5L1187.5 387.5L1162.5 387.5L1137.5 412.5M1437.5 362.5L1412.5 387.5L1387.5 387.5M1337.5 362.5L1312.5 387.5L1287.5 387.5L1262.5 387.5L1237.5 387.5M1012.5 387.5L987.5 362.5L962.5 362.5L937.5 337.5L912.5 337.5M1137.5 362.5L1112.5 362.5L1087.5 362.5M1462.5 362.5L1437.5 362.5L1412.5 362.5L1387.5 362.5L1362.5 362.5L1337.5 362.5L1312.5 362.5L1287.5 362.5L1262.5 362.5L1237.5 362.5L1212.5 362.5L1187.5 362.5L1162.5 362.5L1137.5 362.5L1112.5 387.5L1087.5 387.5L1062.5 387.5L1037.5 387.5L1012.5 387.5L987.5 387.5" stroke="rgba(139, 140, 249, 1)" stroke-width="4.17"></path><path d="M981.25 387.5 a6.25 6.25 0 1 0 12.5 0 a6.25 6.25 0 1 0 -12.5 0zM1131.25 412.5 a6.25 6.25 0 1 0 12.5 0 a6.25 6.25 0 1 0 -12.5 0zM1381.25 387.5 a6.25 6.25 0 1 0 12.5 0 a6.25 6.25 0 1 0 -12.5 0zM1231.25 387.5 a6.25 6.25 0 1 0 12.5 0 a6.25 6.25 0 1 0 -12.5 0zM906.25 337.5 a6.25 6.25 0 1 0 12.5 0 a6.25 6.25 0 1 0 -12.5 0zM1081.25 362.5 a6.25 6.25 0 1 0 12.5 0 a6.25 6.25 0 1 0 -12.5 0z" fill="rgba(139, 140, 249, 1)"></path><path d="M1162.5 437.5L1137.5 462.5L1112.5 462.5M1012.5 412.5L987.5 437.5L962.5 437.5L937.5 437.5L912.5 437.5M812.5 412.5L787.5 387.5M1062.5 437.5L1037.5 437.5L1012.5 437.5L987.5 462.5M1362.5 412.5L1337.5 437.5L1312.5 437.5L1287.5 462.5L1262.5 462.5M862.5 412.5L837.5 437.5M1387.5 412.5L1362.5 437.5L1337.5 462.5L1312.5 462.5L1287.5 487.5M1462.5 387.5L1437.5 412.5L1412.5 412.5L1387.5 412.5L1362.5 412.5L1337.5 412.5L1312.5 412.5L1287.5 412.5L1262.5 412.5L1237.5 412.5L1212.5 412.5L1187.5 437.5L1162.5 437.5L1137.5 437.5L1112.5 437.5L1087.5 437.5L1062.5 437.5L1037.5 412.5L1012.5 412.5L987.5 412.5L962.5 412.5L937.5 412.5L912.5 412.5L887.5 412.5L862.5 412.5L837.5 412.5L812.5 412.5L787.5 412.5" stroke="rgba(255, 179, 68, 1)" stroke-width="4.17"></path><path d="M781.25 412.5 a6.25 6.25 0 1 0 12.5 0 a6.25 6.25 0 1 0 -12.5 0zM1106.25 462.5 a6.25 6.25 0 1 0 12.5 0 a6.25 6.25 0 1 0 -12.5 0zM906.25 437.5 a6.25 6.25 0 1 0 12.5 0 a6.25 6.25 0 1 0 -12.5 0zM781.25 387.5 a6.25 6.25 0 1 0 12.5 0 a6.25 6.25 0 1 0 -12.5 0zM981.25 462.5 a6.25 6.25 0 1 0 12.5 0 a6.25 6.25 0 1 0 -12.5 0zM1256.25 462.5 a6.25 6.25 0 1 0 12.5 0 a6.25 6.25 0 1 0 -12.5 0zM831.25 437.5 a6.25 6.25 0 1 0 12.5 0 a6.25 6.25 0 1 0 -12.5 0zM1281.25 487.5 a6.25 6.25 0 1 0 12.5 0 a6.25 6.25 0 1 0 -12.5 0z" fill="rgba(255, 179, 68, 1)"></path><path d="M1162.5 112.5L1137.5 87.5L1112.5 87.5L1087.5 87.5L1062.5 62.5L1037.5 62.5L1012.5 62.5M1187.5 112.5L1162.5 87.5L1137.5 62.5L1112.5 62.5L1087.5 62.5M1312.5 137.5L1287.5 112.5L1262.5 112.5M1337.5 137.5L1312.5 112.5M1362.5 137.5L1337.5 112.5M1462.5 162.5L1437.5 162.5L1412.5 162.5L1387.5 137.5L1362.5 137.5L1337.5 137.5L1312.5 137.5L1287.5 137.5L1262.5 137.5L1237.5 137.5L1212.5 137.5L1187.5 112.5L1162.5 112.5L1137.5 112.5L1112.5 112.5L1087.5 112.5L1062.5 87.5L1037.5 87.5L1012.5 87.5L987.5 87.5L962.5 87.5" stroke="rgba(255, 179, 68, 1)" stroke-width="4.17"></path><path d="M956.25 87.5 a6.25 6.25 0 1 0 12.5 0 a6.25 6.25 0 1 0 -12.5 0zM1006.25 62.5 a6.25 6.25 0 1 0 12.5 0 a6.25 6.25 0 1 0 -12.5 0zM1081.25 62.5 a6.25 6.25 0 1 0 12.5 0 a6.25 6.25 0 1 0 -12.5 0zM1256.25 112.5 a6.25 6.25 0 1 0 12.5 0 a6.25 6.25 0 1 0 -12.5 0zM1306.25 112.5 a6.25 6.25 0 1 0 12.5 0 a6.25 6.25 0 1 0 -12.5 0zM1331.25 112.5 a6.25 6.25 0 1 0 12.5 0 a6.25 6.25 0 1 0 -12.5 0z" fill="rgba(255, 179, 68, 1)"></path></g></g><defs><mask id="SvgjsMask1013"><rect width="1440" height="560" fill="#ffffff"></rect></mask><mask id="SvgjsMask1014"><rect width="1440" height="560" fill="white"></rect><path d="M1059.37 312.5 a3.13 3.13 0 1 0 6.26 0 a3.13 3.13 0 1 0 -6.26 0zM1084.37 287.5 a3.13 3.13 0 1 0 6.26 0 a3.13 3.13 0 1 0 -6.26 0zM1259.37 262.5 a3.13 3.13 0 1 0 6.26 0 a3.13 3.13 0 1 0 -6.26 0zM1109.37 262.5 a3.13 3.13 0 1 0 6.26 0 a3.13 3.13 0 1 0 -6.26 0zM1359.37 237.5 a3.13 3.13 0 1 0 6.26 0 a3.13 3.13 0 1 0 -6.26 0z" fill="black"></path><path d="M1084.37 212.5 a3.13 3.13 0 1 0 6.26 0 a3.13 3.13 0 1 0 -6.26 0zM1134.37 212.5 a3.13 3.13 0 1 0 6.26 0 a3.13 3.13 0 1 0 -6.26 0zM1084.37 162.5 a3.13 3.13 0 1 0 6.26 0 a3.13 3.13 0 1 0 -6.26 0zM1209.37 237.5 a3.13 3.13 0 1 0 6.26 0 a3.13 3.13 0 1 0 -6.26 0zM1259.37 237.5 a3.13 3.13 0 1 0 6.26 0 a3.13 3.13 0 1 0 -6.26 0z" fill="black"></path><path d="M1034.37 337.5 a3.13 3.13 0 1 0 6.26 0 a3.13 3.13 0 1 0 -6.26 0zM1034.37 362.5 a3.13 3.13 0 1 0 6.26 0 a3.13 3.13 0 1 0 -6.26 0zM1059.37 362.5 a3.13 3.13 0 1 0 6.26 0 a3.13 3.13 0 1 0 -6.26 0z" fill="black"></path><path d="M1234.37 337.5 a3.13 3.13 0 1 0 6.26 0 a3.13 3.13 0 1 0 -6.26 0z" fill="black"></path><path d="M1034.37 137.5 a3.13 3.13 0 1 0 6.26 0 a3.13 3.13 0 1 0 -6.26 0zM1409.37 212.5 a3.13 3.13 0 1 0 6.26 0 a3.13 3.13 0 1 0 -6.26 0zM1284.37 162.5 a3.13 3.13 0 1 0 6.26 0 a3.13 3.13 0 1 0 -6.26 0z" fill="black"></path><path d="M984.37 387.5 a3.13 3.13 0 1 0 6.26 0 a3.13 3.13 0 1 0 -6.26 0zM1134.37 412.5 a3.13 3.13 0 1 0 6.26 0 a3.13 3.13 0 1 0 -6.26 0zM1384.37 387.5 a3.13 3.13 0 1 0 6.26 0 a3.13 3.13 0 1 0 -6.26 0zM1234.37 387.5 a3.13 3.13 0 1 0 6.26 0 a3.13 3.13 0 1 0 -6.26 0zM909.37 337.5 a3.13 3.13 0 1 0 6.26 0 a3.13 3.13 0 1 0 -6.26 0zM1084.37 362.5 a3.13 3.13 0 1 0 6.26 0 a3.13 3.13 0 1 0 -6.26 0z" fill="black"></path><path d="M784.37 412.5 a3.13 3.13 0 1 0 6.26 0 a3.13 3.13 0 1 0 -6.26 0zM1109.37 462.5 a3.13 3.13 0 1 0 6.26 0 a3.13 3.13 0 1 0 -6.26 0zM909.37 437.5 a3.13 3.13 0 1 0 6.26 0 a3.13 3.13 0 1 0 -6.26 0zM784.37 387.5 a3.13 3.13 0 1 0 6.26 0 a3.13 3.13 0 1 0 -6.26 0zM984.37 462.5 a3.13 3.13 0 1 0 6.26 0 a3.13 3.13 0 1 0 -6.26 0zM1259.37 462.5 a3.13 3.13 0 1 0 6.26 0 a3.13 3.13 0 1 0 -6.26 0zM834.37 437.5 a3.13 3.13 0 1 0 6.26 0 a3.13 3.13 0 1 0 -6.26 0zM1284.37 487.5 a3.13 3.13 0 1 0 6.26 0 a3.13 3.13 0 1 0 -6.26 0z" fill="black"></path><path d="M959.37 87.5 a3.13 3.13 0 1 0 6.26 0 a3.13 3.13 0 1 0 -6.26 0zM1009.37 62.5 a3.13 3.13 0 1 0 6.26 0 a3.13 3.13 0 1 0 -6.26 0zM1084.37 62.5 a3.13 3.13 0 1 0 6.26 0 a3.13 3.13 0 1 0 -6.26 0zM1259.37 112.5 a3.13 3.13 0 1 0 6.26 0 a3.13 3.13 0 1 0 -6.26 0zM1309.37 112.5 a3.13 3.13 0 1 0 6.26 0 a3.13 3.13 0 1 0 -6.26 0zM1334.37 112.5 a3.13 3.13 0 1 0 6.26 0 a3.13 3.13 0 1 0 -6.26 0z" fill="black"></path></mask></defs></svg>